<svg width="48" height="56" viewBox="0 0 48 56" fill="none" xmlns="http://www.w3.org/2000/svg">
<path fill-rule="evenodd" clip-rule="evenodd" d="M32.6421 4.34103C32.8818 2.2004 31.3642 0.267454 29.2235 0.0278322C27.0829 -0.227765 25.15 1.30582 24.9103 3.44644C24.6228 5.89058 25.0222 8.81397 25.5334 11.8172C26.9551 12.2485 28.329 12.8716 29.6069 13.6064C30.9808 10.3635 32.3227 7.15259 32.6421 4.34103ZM47.6744 13.7342C46.8278 11.7533 44.5274 10.8587 42.5465 11.7054C39.9426 12.8396 37.2429 15.0601 34.5272 17.3445C35.5496 18.3509 36.508 19.4851 37.3228 20.7152C40.4059 20.3318 43.3612 19.8685 45.6456 18.8781C47.6265 17.9995 48.5371 15.6991 47.6744 13.7342ZM41.1088 3.28669C39.3835 2.00871 36.9394 2.36015 35.6614 4.08543C33.7125 6.7053 32.4025 10.6191 30.9808 14.4371C31.46 14.7566 31.9073 15.0761 32.3386 15.4116C32.6581 15.6672 32.9936 15.9387 33.3291 16.2103C36.5879 13.7502 39.9746 11.354 41.9235 8.73409C43.2015 7.00882 42.8341 4.56467 41.1088 3.28669Z" fill="#2DC653"/>
<path d="M33.6966 34.5655C32.4985 35.8594 31.2205 37.0575 29.8626 38.2237C27.9616 39.8691 26.0287 41.4666 24.0638 43.0001C21.9551 41.7062 20.4375 41.0512 20.1819 41.3867C19.9582 41.6902 20.8369 42.8084 22.4184 44.2622C17.1147 48.2079 11.5076 51.6904 5.48508 54.5499C4.54257 54.9972 3.55213 55.3167 2.57767 55.6682C2.32207 55.764 2.0505 55.764 1.93867 55.78C0.405094 55.9557 -0.0581752 55.5404 0.00572396 54.1346C0.197421 49.7575 1.55528 45.652 2.96106 41.5624C3.34446 40.4442 3.74383 39.3259 4.15917 38.2077C6.28382 39.5017 7.80142 40.1726 8.05702 39.8371C8.32859 39.4697 7.05061 38 4.90999 36.1629C6.44357 32.2012 8.15287 28.3033 10.1657 24.5652C14.1913 27.5525 17.7697 29.5174 18.1691 28.9743C18.5684 28.4311 15.6131 25.5397 11.5395 22.5205L11.3638 22.3927C12.0667 21.1946 12.8015 19.9964 13.5843 18.8303C14.5588 17.3606 15.7569 16.0187 16.939 14.7088C18.5205 12.9675 20.5653 12.3765 22.8497 12.8877C30.1661 14.5171 35.2461 18.7185 37.6423 25.9231C38.1216 27.3928 37.6903 28.8305 36.9394 30.1564C36.4283 31.051 35.8691 31.8977 35.2461 32.6964C31.3802 29.8689 28.0255 28.0477 27.6421 28.5589C27.2747 29.0701 29.9425 31.706 33.6966 34.5655Z" fill="#F3603F"/>
</svg>
